<?xml version="1.0" encoding="utf-8"?>
<!-- Generator: Adobe Illustrator 16.0.0, SVG Export Plug-In . SVG Version: 6.00 Build 0)  -->
<!DOCTYPE svg PUBLIC "-//W3C//DTD SVG 1.1//EN" "http://www.w3.org/Graphics/SVG/1.1/DTD/svg11.dtd">
<svg version="1.1" id="Layer_1" xmlns="http://www.w3.org/2000/svg" xmlns:xlink="http://www.w3.org/1999/xlink" x="0px" y="0px"
	 width="600px" height="600px" viewBox="0 0 600 600" enable-background="new 0 0 600 600" xml:space="preserve">
<g>
	
		<linearGradient id="SVGID_1_" gradientUnits="userSpaceOnUse" x1="-167.791" y1="177.209" x2="-168.3955" y2="176.1411" gradientTransform="matrix(202.9347 0 0 202.7803 34570.7813 -35291.6953)">
		<stop  offset="0" style="stop-color:#FB7655"/>
		<stop  offset="0" style="stop-color:#FB7655"/>
		<stop  offset="0.41" style="stop-color:#E42B1E"/>
		<stop  offset="0.99" style="stop-color:#990000"/>
		<stop  offset="1" style="stop-color:#990000"/>
	</linearGradient>
	<path fill="url(#SVGID_1_)" d="M459.794,392.82L127.729,590l429.964-29.18l33.113-433.546L459.794,392.82z"/>
	
		<linearGradient id="SVGID_2_" gradientUnits="userSpaceOnUse" x1="-161.3174" y1="178.7158" x2="-163.9388" y2="177.7666" gradientTransform="matrix(60.3079 0 0 111.7781 10310.0332 -19515.75)">
		<stop  offset="0" style="stop-color:#871101"/>
		<stop  offset="0" style="stop-color:#871101"/>
		<stop  offset="0.99" style="stop-color:#911209"/>
		<stop  offset="1" style="stop-color:#911209"/>
	</linearGradient>
	<path fill="url(#SVGID_2_)" d="M558.397,560.527L521.441,305.46L420.778,438.378L558.397,560.527z"/>
	
		<linearGradient id="SVGID_3_" gradientUnits="userSpaceOnUse" x1="-167.8936" y1="208.0156" x2="-168.7332" y2="203.1896" gradientTransform="matrix(188.3195 0 0 21.9864 32072.2148 -3924.2246)">
		<stop  offset="0" style="stop-color:#871101"/>
		<stop  offset="0" style="stop-color:#871101"/>
		<stop  offset="0.99" style="stop-color:#911209"/>
		<stop  offset="1" style="stop-color:#911209"/>
	</linearGradient>
	<path fill="url(#SVGID_3_)" d="M558.897,560.527l-270.742-21.256l-158.986,50.172L558.897,560.527z"/>
	
		<linearGradient id="SVGID_4_" gradientUnits="userSpaceOnUse" x1="-166.5762" y1="178.5806" x2="-166.2004" y2="180.2212" gradientTransform="matrix(65.2221 0 0 97.0999 10987.1387 -16956.3633)">
		<stop  offset="0" style="stop-color:#FFFFFF"/>
		<stop  offset="0" style="stop-color:#FFFFFF"/>
		<stop  offset="0.23" style="stop-color:#E57252"/>
		<stop  offset="0.46" style="stop-color:#DE3B20"/>
		<stop  offset="0.99" style="stop-color:#A60003"/>
		<stop  offset="1" style="stop-color:#A60003"/>
	</linearGradient>
	<path fill="url(#SVGID_4_)" d="M129.55,589.501l67.635-221.574L48.354,399.751L129.55,589.501z"/>
	
		<linearGradient id="SVGID_5_" gradientUnits="userSpaceOnUse" x1="-167.2095" y1="177.3442" x2="-167.1237" y2="178.8659" gradientTransform="matrix(105.3202 0 0 106.8253 17901.8398 -18709.5938)">
		<stop  offset="0" style="stop-color:#FFFFFF"/>
		<stop  offset="0" style="stop-color:#FFFFFF"/>
		<stop  offset="0.23" style="stop-color:#E4714E"/>
		<stop  offset="0.56" style="stop-color:#BE1A0D"/>
		<stop  offset="0.99" style="stop-color:#A80D00"/>
		<stop  offset="1" style="stop-color:#A80D00"/>
	</linearGradient>
	<path fill="url(#SVGID_5_)" d="M420.752,439.113l-62.23-243.765L180.423,362.291L420.752,439.113z"/>
	
		<linearGradient id="SVGID_6_" gradientUnits="userSpaceOnUse" x1="-166.02" y1="178.9155" x2="-165.7332" y2="180.6704" gradientTransform="matrix(94.3212 0 0 66.4185 16100.2773 -11798.1875)">
		<stop  offset="0" style="stop-color:#FFFFFF"/>
		<stop  offset="0" style="stop-color:#FFFFFF"/>
		<stop  offset="0.18" style="stop-color:#E46342"/>
		<stop  offset="0.4" style="stop-color:#C82410"/>
		<stop  offset="0.99" style="stop-color:#A80D00"/>
		<stop  offset="1" style="stop-color:#A80D00"/>
	</linearGradient>
	<path fill="url(#SVGID_6_)" d="M576.688,198.783L408.336,61.284l-46.88,151.561L576.688,198.783z"/>
	
		<linearGradient id="SVGID_7_" gradientUnits="userSpaceOnUse" x1="-165.3779" y1="189.2393" x2="-163.7307" y2="186.8409" gradientTransform="matrix(70.7666 0 0 24.3007 12061.5547 -4554.6953)">
		<stop  offset="0" style="stop-color:#FFFFFF"/>
		<stop  offset="0" style="stop-color:#FFFFFF"/>
		<stop  offset="0.54" style="stop-color:#C81F11"/>
		<stop  offset="0.99" style="stop-color:#BF0905"/>
		<stop  offset="1" style="stop-color:#BF0905"/>
	</linearGradient>
	<path fill="url(#SVGID_7_)" d="M497.958,12.261l-99.017,54.718l-62.469-55.452L497.958,12.261z"/>
	
		<linearGradient id="SVGID_8_" gradientUnits="userSpaceOnUse" x1="-159.7959" y1="180.4297" x2="-159.2687" y2="181.7506" gradientTransform="matrix(18.1773 0 0 72.6448 2925.3176 -12763.9531)">
		<stop  offset="0" style="stop-color:#FFFFFF"/>
		<stop  offset="0" style="stop-color:#FFFFFF"/>
		<stop  offset="0.31" style="stop-color:#DE4024"/>
		<stop  offset="0.99" style="stop-color:#BF190B"/>
		<stop  offset="1" style="stop-color:#BF190B"/>
	</linearGradient>
	<path fill="url(#SVGID_8_)" d="M9.193,474.075l41.479-75.648l-33.553-90.12L9.193,474.075z"/>
	<path fill="#FFFFFF" d="M14.889,305.46l33.758,95.757l146.688-32.91l167.472-155.642l47.263-150.119L335.649,10L209.13,57.35
		C169.268,94.426,91.917,167.783,89.129,169.164C86.369,170.572,38.05,261.896,14.889,305.46L14.889,305.46z"/>
	
		<linearGradient id="SVGID_9_" gradientUnits="userSpaceOnUse" x1="-170.1855" y1="177.7075" x2="-167.3354" y2="174.7726" gradientTransform="matrix(158.1624 0 0 157.9374 26871.668 -27601.2813)">
		<stop  offset="0" style="stop-color:#BD0012"/>
		<stop  offset="0" style="stop-color:#BD0012"/>
		<stop  offset="0.07" style="stop-color:#FFFFFF"/>
		<stop  offset="0.17" style="stop-color:#FFFFFF"/>
		<stop  offset="0.27" style="stop-color:#C82F1C"/>
		<stop  offset="0.33" style="stop-color:#820C01"/>
		<stop  offset="0.46" style="stop-color:#A31601"/>
		<stop  offset="0.72" style="stop-color:#B31301"/>
		<stop  offset="0.99" style="stop-color:#E82609"/>
		<stop  offset="1" style="stop-color:#E82609"/>
	</linearGradient>
	<path fill="url(#SVGID_9_)" d="M133.425,133.439C219.816,47.781,331.191-2.828,373.933,40.294
		c42.714,43.123-2.585,147.92-88.977,233.549C198.563,359.475,88.57,412.869,45.857,369.747
		C3.117,326.654,47.033,219.067,133.425,133.439L133.425,133.439z"/>
	
		<linearGradient id="SVGID_10_" gradientUnits="userSpaceOnUse" x1="-167.6123" y1="179.8823" x2="-168.6811" y2="179.5381" gradientTransform="matrix(127.0738 0 0 97.4086 21599.3379 -17009.9883)">
		<stop  offset="0" style="stop-color:#8C0C01"/>
		<stop  offset="0" style="stop-color:#8C0C01"/>
		<stop  offset="0.54" style="stop-color:#990C00"/>
		<stop  offset="0.99" style="stop-color:#A80D0E"/>
		<stop  offset="1" style="stop-color:#A80D0E"/>
	</linearGradient>
	<path fill="url(#SVGID_10_)" d="M129.55,589.412l67.104-222.276l222.866,71.595C338.939,514.292,249.318,578.167,129.55,589.412
		L129.55,589.412z"/>
	
		<linearGradient id="SVGID_11_" gradientUnits="userSpaceOnUse" x1="-165.0308" y1="178.4688" x2="-166.314" y2="177.4449" gradientTransform="matrix(94.0112 0 0 105.6032 16047.9941 -18497.7227)">
		<stop  offset="0" style="stop-color:#7E110B"/>
		<stop  offset="0" style="stop-color:#7E110B"/>
		<stop  offset="0.99" style="stop-color:#9E0C00"/>
		<stop  offset="1" style="stop-color:#9E0C00"/>
	</linearGradient>
	<path fill="url(#SVGID_11_)" d="M363.099,212.227l57.215,226.625c67.311-70.776,127.726-146.866,157.312-240.979L363.099,212.227
		L363.099,212.227z"/>
	
		<linearGradient id="SVGID_12_" gradientUnits="userSpaceOnUse" x1="-163.6533" y1="178.7739" x2="-164.4072" y2="177.9885" gradientTransform="matrix(79.7019 0 0 81.7914 13621.0869 -14471.4844)">
		<stop  offset="0" style="stop-color:#79130D"/>
		<stop  offset="0" style="stop-color:#79130D"/>
		<stop  offset="0.99" style="stop-color:#9E120B"/>
		<stop  offset="1" style="stop-color:#9E120B"/>
	</linearGradient>
	<path fill="url(#SVGID_12_)" d="M577.04,199.018c22.896-69.102,28.181-168.235-79.79-186.64l-88.595,48.935L577.04,199.018
		L577.04,199.018z"/>
	<path fill="#9E1209" d="M9.193,473.077c3.17,114.048,85.453,115.746,120.503,116.749L48.734,400.745L9.193,473.077L9.193,473.077z"
		/>
	
		<radialGradient id="SVGID_13_" cx="-166.0679" cy="183.2715" r="1.5874" gradientTransform="matrix(93.1133 0 0 48.6553 15894.6309 -8673.9766)" gradientUnits="userSpaceOnUse">
		<stop  offset="0" style="stop-color:#A80D00"/>
		<stop  offset="0" style="stop-color:#A80D00"/>
		<stop  offset="0.99" style="stop-color:#7E0E08"/>
		<stop  offset="1" style="stop-color:#7E0E08"/>
	</radialGradient>
	<path fill="url(#SVGID_13_)" d="M363.42,212.58c51.724,31.792,155.967,95.639,158.079,96.813
		c3.285,1.851,44.943-70.246,54.396-110.991L363.42,212.58L363.42,212.58z"/>
	
		<radialGradient id="SVGID_14_" cx="-167.6382" cy="181.0015" r="2.0174" gradientTransform="matrix(97.4344 0 0 75.848 16560.4082 -13290.7852)" gradientUnits="userSpaceOnUse">
		<stop  offset="0" style="stop-color:#A30C00"/>
		<stop  offset="0" style="stop-color:#A30C00"/>
		<stop  offset="0.99" style="stop-color:#800E08"/>
		<stop  offset="1" style="stop-color:#800E08"/>
	</radialGradient>
	<path fill="url(#SVGID_14_)" d="M196.567,367.136l89.709,173.077c53.044-28.77,94.582-63.816,132.626-101.361L196.567,367.136
		L196.567,367.136z"/>
	
		<linearGradient id="SVGID_15_" gradientUnits="userSpaceOnUse" x1="-164.5479" y1="182.1318" x2="-165.7679" y2="180.0844" gradientTransform="matrix(40.1367 0 0 81.143 6691.9629 -14189.3086)">
		<stop  offset="0" style="stop-color:#8B2114"/>
		<stop  offset="0" style="stop-color:#8B2114"/>
		<stop  offset="0.43" style="stop-color:#9E100A"/>
		<stop  offset="0.99" style="stop-color:#B3100C"/>
		<stop  offset="1" style="stop-color:#B3100C"/>
	</linearGradient>
	<path fill="url(#SVGID_15_)" d="M48.383,400.98L35.672,552.334c23.982,32.763,56.979,35.61,91.588,33.055
		C102.221,523.068,52.199,398.456,48.383,400.98L48.383,400.98z"/>
	
		<linearGradient id="SVGID_16_" gradientUnits="userSpaceOnUse" x1="-164.9644" y1="184.8008" x2="-163.5587" y2="186.2862" gradientTransform="matrix(78.0993 0 0 32.6239 13346.8252 -5990.1211)">
		<stop  offset="0" style="stop-color:#B31000"/>
		<stop  offset="0" style="stop-color:#B31000"/>
		<stop  offset="0.44" style="stop-color:#910F08"/>
		<stop  offset="0.99" style="stop-color:#791C12"/>
		<stop  offset="1" style="stop-color:#791C12"/>
	</linearGradient>
	<path fill="url(#SVGID_16_)" d="M408.131,61.695l178.216,25.01c-9.512-40.305-38.722-66.313-88.507-74.444L408.131,61.695
		L408.131,61.695z"/>
</g>
</svg>
