<?xml version="1.0" encoding="utf-8"?>
<!-- Generator: Adobe Illustrator 16.0.0, SVG Export Plug-In . SVG Version: 6.00 Build 0)  -->
<!DOCTYPE svg PUBLIC "-//W3C//DTD SVG 1.1//EN" "http://www.w3.org/Graphics/SVG/1.1/DTD/svg11.dtd">
<svg version="1.1"
	 id="svg2" xmlns:cc="http://creativecommons.org/ns#" xmlns:svg="http://www.w3.org/2000/svg" xmlns:inkscape="http://www.inkscape.org/namespaces/inkscape" xmlns:sodipodi="http://sodipodi.sourceforge.net/DTD/sodipodi-0.dtd" xmlns:rdf="http://www.w3.org/1999/02/22-rdf-syntax-ns#" xmlns:dc="http://purl.org/dc/elements/1.1/" sodipodi:docname="WordPress_blue_logo.svg" inkscape:version="0.48.1 "
	 xmlns="http://www.w3.org/2000/svg" xmlns:xlink="http://www.w3.org/1999/xlink" x="0px" y="0px" width="600px" height="600px"
	 viewBox="0 0 600 600" enable-background="new 0 0 600 600" xml:space="preserve">
<sodipodi:namedview  inkscape:cy="59.951461" inkscape:zoom="1.24" id="namedview34" gridtolerance="10" guidetolerance="10" objecttolerance="10" inkscape:cx="304.14148" bordercolor="#666666" borderopacity="1" pagecolor="#ffffff" inkscape:window-y="0" inkscape:current-layer="svg2" inkscape:pageopacity="0" inkscape:window-maximized="0" inkscape:window-height="726" inkscape:window-x="0" inkscape:pageshadow="2" inkscape:window-width="1052" showgrid="false">
	</sodipodi:namedview>
<g id="Layer_1">
</g>
<g>
	<g>
		<g>
			<defs>
				<rect id="SVGID_1_" x="10" y="9.995" width="580" height="580.011"/>
			</defs>
			<clipPath id="SVGID_2_">
				<use xlink:href="#SVGID_1_"  overflow="visible"/>
			</clipPath>
			<g id="g6" clip-path="url(#SVGID_2_)">
				<path id="path8" inkscape:connector-curvature="0" fill="#00749A" d="M1492.602,238.297H1391.97v10.674
					c31.478,0,36.534,6.745,36.534,46.655v71.965c0,39.914-5.048,47.228-36.534,47.228c-24.159-3.379-40.474-16.305-62.959-41.041
					l-25.855-28.107c34.847-6.189,53.398-28.107,53.398-52.85c0-30.913-26.416-54.522-75.891-54.522h-98.938v10.674
					c31.478,0,36.534,6.745,36.534,46.655v71.965c0,39.914-5.053,47.229-36.534,47.229v10.678h111.864V414.82
					c-31.468,0-36.533-7.313-36.533-47.229v-20.227h9.56l62.4,78.133h163.591c80.383,0,115.244-42.721,115.244-93.883
					C1607.841,280.454,1572.988,238.297,1492.602,238.297L1492.602,238.297z M1257.06,329.919v-74.757h23.045
					c25.293,0,36.54,17.429,36.54,37.663c0,19.68-11.247,37.099-36.54,37.099L1257.06,329.919L1257.06,329.919z M1494.288,408.064
					h-3.938c-20.23,0-23.045-5.049-23.045-30.908V255.162c0,0,24.735,0,26.982,0c58.466,0,69.136,42.721,69.136,75.89
					C1563.429,365.339,1552.75,408.064,1494.288,408.064z"/>
				<path id="path10" inkscape:connector-curvature="0" fill="#00749A" d="M868.618,350.73L907.4,236.037
					c11.247-33.165,6.194-42.711-29.79-42.711v-11.248h105.685v11.248c-35.406,0-43.844,8.423-57.894,49.46l-64.091,192.262h-7.305
					l-57.348-175.957l-58.457,175.957h-7.313l-62.4-192.257c-13.49-41.038-22.486-49.46-55.092-49.46v-11.248h124.801v11.248
					c-33.18,0-42.171,7.868-30.359,42.711l37.663,114.694l56.771-168.654h10.691L868.618,350.73z"/>
				<path id="path12" inkscape:connector-curvature="0" fill="#00749A" d="M1059.743,432.797
					c-61.836,0-112.429-45.531-112.429-101.191c0-55.096,50.593-100.625,112.429-100.625c61.832,0,112.43,45.531,112.43,100.625
					C1172.173,387.266,1121.58,432.797,1059.743,432.797z M1059.743,248.417c-51.712,0-69.713,46.645-69.713,83.194
					c0,37.107,18.001,83.203,69.713,83.203c52.285,0,70.273-46.096,70.273-83.203
					C1130.018,295.062,1112.028,248.417,1059.743,248.417z"/>
				<path id="path14" inkscape:connector-curvature="0" fill="#464342" d="M1746.687,414.25v11.242h-128.734V414.25
					c37.668,0,44.412-9.561,44.412-65.784v-89.934c0-56.224-6.744-65.206-44.412-65.206v-11.252h116.363
					c57.896,0,89.953,29.794,89.953,69.713c0,38.791-32.051,69.145-89.953,69.145h-32.046v27.534
					C1702.273,404.695,1709.015,414.25,1746.687,414.25z M1734.314,202.308h-32.046v97.821h32.046
					c31.481,0,46.096-21.922,46.096-48.342C1780.414,224.803,1765.802,202.308,1734.314,202.308z"/>
				<path id="path16" inkscape:connector-curvature="0" fill="#464342" d="M2210.456,372.652l-2.814,10.115
					c-5.053,18.553-11.247,25.297-51.162,25.297h-7.872c-29.228,0-34.284-6.744-34.284-46.65v-25.855
					c43.85,0,47.225,3.93,47.225,33.165h10.684v-83.772h-10.684c0,29.231-3.375,33.166-47.225,33.166v-62.956h30.909
					c39.924,0,46.1,6.745,51.162,25.297l2.819,10.684h8.986l-3.93-52.84h-165.278v10.674c31.474,0,36.539,6.745,36.539,46.654v71.96
					c0,36.513-4.294,45.711-29.114,47.028c-23.587-3.61-39.779-16.471-61.941-40.844l-25.861-28.106
					c34.857-6.19,53.409-28.106,53.409-52.85c0-30.913-26.42-54.522-75.89-54.522h-98.937v10.674c31.474,0,36.54,6.745,36.54,46.655
					v71.965c0,39.914-5.058,47.228-36.54,47.228v10.68h111.87v-10.68c-31.473,0-36.54-7.313-36.54-47.228v-20.226h9.562
					l62.396,78.131h231.044l3.375-52.834L2210.456,372.652L2210.456,372.652z M1912.523,329.919v-74.757h23.04
					c25.302,0,36.549,17.429,36.549,37.663c0,19.68-11.247,37.099-36.549,37.099L1912.523,329.919L1912.523,329.919z"/>
				<path id="path18" inkscape:connector-curvature="0" fill="#464342" d="M2324.572,432.797c-22.485,0-42.165-11.803-50.598-19.116
					c-2.814,2.815-7.868,11.248-8.991,19.116H2254.3V355.22h11.242c4.502,37.108,30.354,59.03,63.523,59.03
					c17.992,0,32.609-10.124,32.609-26.979c0-14.613-12.927-25.861-35.979-36.541l-32.046-15.177
					c-22.49-10.688-39.351-29.249-39.351-53.973c0-26.983,25.302-50.029,60.152-50.029c18.552,0,34.288,6.754,43.854,14.622
					c2.806-2.256,5.621-8.437,7.309-15.186h10.68v66.34h-11.808c-3.938-26.425-18.552-48.347-48.342-48.347
					c-15.741,0-30.358,8.987-30.358,23.055c0,14.613,11.803,22.481,38.79,34.843l30.909,15.177
					c26.988,12.931,37.663,33.738,37.663,50.603C2393.149,408.064,2362.23,432.797,2324.572,432.797L2324.572,432.797z"/>
				<path id="path20" inkscape:connector-curvature="0" fill="#464342" d="M2497.71,432.797c-22.49,0-42.17-11.803-50.593-19.116
					c-2.812,2.815-7.868,11.248-8.987,19.116h-10.684V355.22h11.242c4.498,37.108,30.351,59.03,63.523,59.03
					c17.988,0,32.609-10.124,32.609-26.979c0-14.613-12.931-25.861-35.984-36.541l-32.046-15.177
					c-22.485-10.688-39.351-29.249-39.351-53.973c0-26.983,25.297-50.029,60.153-50.029c18.552,0,34.283,6.754,43.849,14.622
					c2.811-2.256,5.621-8.437,7.3-15.186h10.688v66.34h-11.803c-3.938-26.425-18.552-48.347-48.342-48.347
					c-15.741,0-30.363,8.987-30.363,23.055c0,14.613,11.807,22.481,38.791,34.843l30.913,15.177
					c26.984,12.931,37.658,33.738,37.658,50.603C2566.286,408.064,2535.368,432.797,2497.71,432.797L2497.71,432.797z"/>
				<g id="g22">
					<path id="path24" inkscape:connector-curvature="0" fill="#00749A" d="M51.223,299.99c0,98.482,57.228,183.577,140.213,223.911
						L72.761,198.744C58.957,229.685,51.223,263.927,51.223,299.99z"/>
					<path id="path26" inkscape:connector-curvature="0" fill="#00749A" d="M467.955,287.439c0-30.747-11.044-52.04-20.521-68.613
						c-12.605-20.493-24.423-37.848-24.423-58.341c0-22.87,17.341-44.158,41.77-44.158c1.104,0,2.148,0.139,3.23,0.199
						c-44.27-40.548-103.238-65.308-168.006-65.308c-86.916,0-163.379,44.593-207.865,112.138c5.84,0.175,11.346,0.291,16.01,0.291
						c26.021,0,66.307-3.157,66.307-3.157c13.411-0.791,14.992,18.908,1.6,20.493c0,0-13.484,1.586-28.481,2.372l90.6,269.475
						l54.448-163.288L253.854,183.35c-13.397-0.787-26.088-2.372-26.088-2.372c-13.406-0.786-11.835-21.284,1.572-20.493
						c0,0,41.084,3.157,65.53,3.157c26.018,0,66.301-3.157,66.301-3.157c13.421-0.791,14.997,18.907,1.596,20.493
						c0,0-13.504,1.585-28.473,2.372l89.906,267.436l24.807-82.922C459.768,333.451,467.955,308.736,467.955,287.439z"/>
					<path id="path28" inkscape:connector-curvature="0" fill="#00749A" d="M304.369,321.755l-74.643,216.894
						c22.287,6.561,45.855,10.143,70.278,10.143c28.972,0,56.755-5.016,82.616-14.104c-0.676-1.063-1.281-2.195-1.771-3.426
						L304.369,321.755z"/>
					<path id="path30" inkscape:connector-curvature="0" fill="#00749A" d="M518.303,180.631c1.068,7.924,1.674,16.439,1.674,25.583
						c0,25.246-4.715,53.626-18.917,89.111l-75.99,219.712c73.962-43.131,123.709-123.26,123.709-215.047
						C548.782,256.743,537.733,216.07,518.303,180.631z"/>
					<path id="path32" inkscape:connector-curvature="0" fill="#00749A" d="M300.005,9.995C140.098,9.995,10,140.089,10,299.991
						C10,459.916,140.093,590.01,300.005,590.01c159.901,0,290.02-130.09,290.02-290.019
						C590.02,140.088,459.906,9.995,300.005,9.995z M300.005,576.709c-152.57,0-276.709-124.137-276.709-276.719
						c0-152.565,124.13-276.691,276.709-276.691c152.569,0,276.695,124.125,276.695,276.691
						C576.7,452.574,452.57,576.709,300.005,576.709z"/>
				</g>
			</g>
		</g>
	</g>
</g>
</svg>
